<svg height="512pt" viewBox="0 -106 512 512" width="512pt" xmlns="http://www.w3.org/2000/svg"><path d="m159.9375 40c5.523438 0 10-4.476562 10-10s-4.476562-10-10-10h-.007812c-5.523438 0-9.996094 4.476562-9.996094 10s4.480468 10 10.003906 10zm0 0"/><path d="m452 0c-17.726562 0-33.679688 7.734375-44.671875 20h-207.394531c-5.523438 0-10 4.476562-10 10s4.476562 10 10 10h195.507812c-2.21875 6.257812-3.4375 12.988281-3.4375 20v64.402344c-11.105468-7.984375-24.597656-12.503906-38.667968-12.503906-18.640626 0-36.273438 7.929687-48.667969 21.34375-12.390625-13.414063-30.027344-21.34375-48.667969-21.34375-18.636719 0-36.273438 7.929687-48.664062 21.34375-12.394532-13.414063-30.027344-21.34375-48.667969-21.34375-14.070313 0-27.566407 4.519531-38.667969 12.503906v-64.402344c0-7.011719-1.21875-13.742188-3.4375-20h3.371094c5.523437 0 10-4.476562 10-10s-4.476563-10-10-10h-15.261719c-10.992187-12.265625-26.941406-20-44.671875-20-33.085938 0-60 26.914062-60 60v180c0 33.082031 26.914062 60 60 60h392c33.085938 0 60-26.917969 60-60v-180c0-33.085938-26.914062-60-60-60zm40 240c0 22.054688-17.941406 40-39.996094 40h-392.003906c-22.054688 0-40-17.945312-40-40v-180c0-22.058594 17.945312-40 40-40 12.828125 0 24.253906 6.074219 31.578125 15.492188.234375.351562.488281.683593.761719 1.003906 4.8125 6.601562 7.660156 14.726562 7.660156 23.503906v130c0 5.523438 4.476562 10 10 10h192c5.523438 0 10-4.476562 10-10s-4.476562-10-10-10h-182v-27.152344c8.480469-12.976562 23.066406-20.949218 38.667969-20.949218 16.453125 0 31.78125 8.851562 40.007812 23.097656 1.785157 3.09375 5.085938 5 8.660157 5 3.570312 0 6.871093-1.90625 8.660156-5 8.222656-14.246094 23.554687-23.097656 40.003906-23.097656 16.453125 0 31.78125 8.851562 40.007812 23.097656 1.785157 3.09375 5.085938 5 8.660157 5 3.570312 0 6.875-1.90625 8.660156-5 8.226563-14.246094 23.554687-23.097656 40.007813-23.097656 15.601562 0 30.183593 7.972656 38.664062 20.949218v27.152344h-10c-5.523438 0-10 4.476562-10 10s4.476562 10 10 10h20c5.523438 0 10-4.476562 10-10v-130c0-8.78125 2.851562-16.902344 7.667969-23.507812.269531-.316407.519531-.648438.75-.996094 7.328125-9.421875 18.753906-15.496094 31.585937-15.496094 22.054688 0 39.996094 17.941406 39.996094 40zm0 0"/><path d="m342.003906 180h-.007812c-5.519532 0-9.996094 4.476562-9.996094 10s4.480469 10 10.003906 10c5.523438 0 10-4.476562 10-10s-4.476562-10-10-10zm0 0"/></svg>