<svg viewBox="0 0 24 24"><g fill="none" fill-rule="evenodd"><rect width="24" height="24" rx="2" fill="#289CDE"></rect><path d="M11.85 4.042L5.915 7.305l6.581 3.866c.057.032.13.106.13.18v5.7c0 .082-.073.131-.081.14l-.396.22a.256.256 0 0 1-.242-.009l-.348-.195a.206.206 0 0 1-.096-.172v-5.04c0-.09-.097-.13-.162-.172L5.6 8.463v6.745c0 .147.145.318.258.392l5.944 3.54c.193.114.307.098.565-.041l5.87-3.5c.138-.08.267-.236.267-.399V8.463l-3.94 2.324a.204.204 0 0 1-.194.009l-.356-.213c-.072-.04-.137-.122-.137-.212l-.008-.424c0-.065.04-.147.097-.18l4.215-2.479-5.935-3.262c-.08-.033-.299-.041-.396.016z" fill="#FFF"></path></g></svg>