<?xml version="1.0" encoding="iso-8859-1"?>
<!-- Generator: Adobe Illustrator 19.0.0, SVG Export Plug-In . SVG Version: 6.00 Build 0)  -->
<svg version="1.1" id="Capa_1" xmlns="http://www.w3.org/2000/svg" xmlns:xlink="http://www.w3.org/1999/xlink" x="0px" y="0px"
	 viewBox="0 0 512 512" style="enable-background:new 0 0 512 512;" xml:space="preserve">
<g>
	<g>
		<path d="M463.901,409.04V258.498h0.001c14.52-4.334,25.138-17.807,25.138-33.72c0-19.397-15.781-35.177-35.177-35.177
			c-15.909,0-29.378,10.618-33.71,25.138H91.848c-3.081-10.325-10.782-18.67-20.698-22.633
			c6.085-33.201,21.325-63.766,44.409-88.857c3.754-4.08,3.49-10.432-0.591-14.185c-4.08-3.755-10.432-3.49-14.185,0.591
			c-26.092,28.362-43.178,63.019-49.712,100.66c-16.022,3.281-28.11,17.487-28.11,34.464c0,15.913,10.618,29.387,25.138,33.72
			V409.04c-14.52,4.332-25.138,17.801-25.138,33.71c0,15.909,10.618,29.378,25.138,33.71v25.502c0,5.545,4.496,10.039,10.039,10.039
			c5.544,0,10.039-4.495,10.039-10.039v-25.502c11.336-3.382,20.288-12.334,23.67-23.67h328.305
			c3.382,11.336,12.334,20.288,23.67,23.67v25.502c0,5.545,4.496,10.039,10.039,10.039s10.039-4.495,10.039-10.039v-25.502
			c14.52-4.332,25.138-17.8,25.138-33.71S478.421,413.372,463.901,409.04z M453.863,209.679c8.326,0,15.099,6.773,15.099,15.099
			c0,8.331-6.773,15.109-15.099,15.109c-8.326,0-15.099-6.778-15.099-15.109C438.764,216.453,445.537,209.679,453.863,209.679z
			 M400.133,234.817h20.018c3.382,11.341,12.335,20.297,23.672,23.681v102.773h-43.691V234.817z M43.038,224.778
			c0-8.326,6.773-15.099,15.099-15.099c8.326,0,15.099,6.773,15.099,15.099c0,8.331-6.773,15.109-15.099,15.109
			C49.812,239.887,43.038,233.11,43.038,224.778z M58.137,457.849c-8.326,0-15.099-6.773-15.099-15.099s6.773-15.099,15.099-15.099
			c8.326,0,15.099,6.773,15.099,15.099S66.463,457.849,58.137,457.849z M111.877,432.71H91.848
			c-3.383-11.336-12.335-20.288-23.671-23.67v-27.69h43.701V432.71z M111.877,361.271H68.176V258.498
			c11.337-3.383,20.29-12.339,23.671-23.681h20.029V361.271z M178.918,432.71h-46.962V381.35h46.962V432.71z M131.955,361.271
			V234.817h46.962v126.454H131.955z M245.961,432.71h-46.963V381.35h46.963V432.71z M245.961,361.271h-46.963V234.817h46.963
			V361.271z M313.013,432.71h-46.974V381.35h46.974V432.71z M313.013,361.271h-46.974V234.817h46.974V361.271z M380.055,432.71
			h-46.963V381.35h46.963V432.71z M380.055,361.271h-46.963V234.817h46.963V361.271z M420.152,432.71h-20.019V381.35h43.691v27.69
			C432.487,412.422,423.535,421.374,420.152,432.71z M453.863,457.849c-8.326,0-15.099-6.773-15.099-15.099
			s6.773-15.099,15.099-15.099c8.326,0,15.099,6.773,15.099,15.099S462.188,457.849,453.863,457.849z"/>
	</g>
</g>
<g>
	<g>
		<path d="M295.033,173.022c-10.894-6.307-17.66-18.018-17.66-30.565c0-12.547,6.766-24.259,17.66-30.565
			c3.099-1.794,5.008-5.104,5.009-8.685c0.001-3.581-1.905-6.892-5.004-8.688c-8.392-4.866-17.971-7.438-27.704-7.438
			c-0.433,0-0.863,0.03-1.295,0.04V68.888c14.525-4.331,25.148-17.801,25.148-33.711C291.187,15.781,275.402,0,256,0
			c-16.518,0-30.407,11.448-34.167,26.825c-26.312,3.395-51.283,11.866-74.327,25.269c-4.793,2.788-6.419,8.933-3.631,13.726
			c1.864,3.205,5.229,4.994,8.688,4.994c1.713,0,3.451-0.44,5.038-1.362c20.248-11.776,42.15-19.323,65.217-22.509
			c3.708,10.617,12.312,18.81,23.144,21.981v22.44c-20.349,8.493-33.993,28.498-33.993,51.095c0,30.529,24.837,55.366,55.366,55.366
			c9.722,0,19.298-2.567,27.694-7.422c3.102-1.794,5.013-5.105,5.014-8.688C300.043,178.13,298.135,174.817,295.033,173.022z
			 M240.918,35.637c-0.003-0.118-0.009-0.237-0.017-0.355v-0.104c0-8.326,6.773-15.099,15.099-15.099
			c8.332,0,15.109,6.773,15.109,15.099c0,8.326-6.777,15.099-15.109,15.099C247.774,50.276,241.149,43.846,240.918,35.637z
			 M269.958,177.647c-0.871,0.064-1.747,0.097-2.623,0.097c-19.458,0-35.288-15.83-35.288-35.288
			c0-16.122,10.88-30.181,26.458-34.19c2.854-0.735,5.825-1.108,8.83-1.108c0.879,0,1.757,0.033,2.63,0.098
			c-8.05,9.785-12.669,22.205-12.669,35.2C257.295,155.446,261.913,167.863,269.958,177.647z"/>
	</g>
</g>
<g>
	<g>
		<path d="M128.836,66.593c-12.919,0-12.94,20.078,0,20.078C141.756,86.672,141.777,66.593,128.836,66.593z"/>
	</g>
</g>
<g>
</g>
<g>
</g>
<g>
</g>
<g>
</g>
<g>
</g>
<g>
</g>
<g>
</g>
<g>
</g>
<g>
</g>
<g>
</g>
<g>
</g>
<g>
</g>
<g>
</g>
<g>
</g>
<g>
</g>
</svg>
