<?xml version="1.0" encoding="iso-8859-1"?>
<!-- Generator: Adobe Illustrator 19.0.0, SVG Export Plug-In . SVG Version: 6.00 Build 0)  -->
<svg version="1.1" id="Capa_1" xmlns="http://www.w3.org/2000/svg" xmlns:xlink="http://www.w3.org/1999/xlink" x="0px" y="0px"
	 viewBox="0 0 512 512" style="enable-background:new 0 0 512 512;" xml:space="preserve">
<g>
	<g>
		<path d="M485.537,446.458l-46.639-256.517c-4.81-26.452-27.814-45.651-54.7-45.651h-40.537V87.661C343.661,39.324,304.337,0,256,0
			c-48.337,0-87.661,39.324-87.661,87.661v88.178c0,4.143,3.357,7.5,7.5,7.5s7.5-3.357,7.5-7.5V159.29h120.756
			c4.143,0,7.5-3.357,7.5-7.5s-3.357-7.5-7.5-7.5H183.339V87.661C183.339,47.596,215.935,15,256,15s72.661,32.596,72.661,72.661
			v88.178c0,4.143,3.357,7.5,7.5,7.5s7.5-3.357,7.5-7.5V159.29h17.064V256c0,14.515-2.897,28.488-8.599,41.613
			c-2.541-0.662-5.204-1.016-7.949-1.016c-17.396,0-31.549,14.152-31.549,31.549c0,4.949,1.148,9.633,3.188,13.806
			c-17.577,12.291-38.118,18.774-59.817,18.774c-21.67,0-42.235-6.48-59.82-18.769c2.041-4.174,3.191-8.86,3.191-13.812
			c0-17.396-14.152-31.549-31.549-31.549c-2.747,0-5.412,0.354-7.954,1.018c-5.703-13.12-8.594-27.09-8.594-41.614l0.003-104.21
			c0-1.989-0.79-3.896-2.196-5.303c-1.407-1.407-3.314-2.197-5.304-2.197H127.8c-26.886,0-49.891,19.199-54.7,45.651L26.463,446.458
			c-2.958,16.267,1.422,32.876,12.015,45.568C49.071,504.72,64.629,512,81.162,512h349.676c16.533,0,32.091-7.28,42.685-19.974
			C484.115,479.334,488.495,462.725,485.537,446.458z M344.178,311.597c9.125,0,16.548,7.424,16.548,16.549
			s-7.423,16.548-16.548,16.548s-16.549-7.423-16.549-16.548S335.053,311.597,344.178,311.597z M167.822,311.597
			c9.125,0,16.549,7.424,16.549,16.549s-7.424,16.548-16.549,16.548s-16.548-7.423-16.548-16.548S158.697,311.597,167.822,311.597z
			 M462.006,482.416C454.271,491.685,442.91,497,430.838,497H81.162c-12.072,0-23.433-5.315-31.168-14.584
			s-10.933-21.396-8.773-33.274L87.86,192.625c3.512-19.315,20.311-33.335,39.942-33.335h8.476L136.274,256
			c0,17.045,3.494,33.427,10.369,48.783c-6.365,5.776-10.369,14.11-10.369,23.363c0,17.396,14.152,31.548,31.548,31.548
			c7.001,0,13.475-2.295,18.714-6.169c20.341,14.539,44.253,22.201,69.463,22.201c25.243,0,49.122-7.668,69.454-22.208
			c5.241,3.878,11.718,6.176,18.724,6.176c17.396,0,31.548-14.152,31.548-31.548c0-9.251-4.003-17.585-10.367-23.361
			c6.876-15.362,10.367-31.751,10.367-48.785v-96.71h8.473c19.632,0,36.431,14.02,39.942,33.335l46.639,256.517
			C472.938,461.02,469.741,473.147,462.006,482.416z"/>
	</g>
</g>
<g>
</g>
<g>
</g>
<g>
</g>
<g>
</g>
<g>
</g>
<g>
</g>
<g>
</g>
<g>
</g>
<g>
</g>
<g>
</g>
<g>
</g>
<g>
</g>
<g>
</g>
<g>
</g>
<g>
</g>
</svg>
