<?xml version="1.0" encoding="iso-8859-1"?>
<!-- Generator: Adobe Illustrator 18.0.0, SVG Export Plug-In . SVG Version: 6.00 Build 0)  -->
<!DOCTYPE svg PUBLIC "-//W3C//DTD SVG 1.1//EN" "http://www.w3.org/Graphics/SVG/1.1/DTD/svg11.dtd">
<svg version="1.1" id="Capa_1" xmlns="http://www.w3.org/2000/svg" xmlns:xlink="http://www.w3.org/1999/xlink" x="0px" y="0px"
	 viewBox="0 0 382.51 382.51" style="enable-background:new 0 0 382.51 382.51;" xml:space="preserve">
<g>
	<g>
		<path d="M328.767,137.518c0-63.334-42.873-118.217-104.262-133.463c-4.018-0.994-8.086,1.451-9.086,5.471
			c-0.998,4.019,1.451,8.088,5.471,9.088c54.684,13.582,92.877,62.476,92.877,118.904c0,67.553-54.959,122.512-122.512,122.512
			S68.743,205.07,68.743,137.518c0-56.428,38.191-105.322,92.875-118.904c4.021-1,6.471-5.068,5.473-9.088
			c-1-4.02-5.07-6.465-9.088-5.471C96.616,19.301,53.743,74.184,53.743,137.518c0,73.307,57.662,133.396,130.012,137.305v13.033
			c-4.313-2.293-9.039-3.492-14.018-3.492c-14.934,0-28.045,10.791-31.883,26.242c-1.969,7.928-2.316,20.496,7.207,35.354
			c8.424,13.141,22.785,25.144,42.686,35.68c1.098,0.58,2.303,0.871,3.508,0.871c1.205,0,2.412-0.291,3.51-0.871
			c19.9-10.535,34.26-22.539,42.684-35.678c9.523-14.859,9.174-27.428,7.205-35.357c-3.836-15.449-16.945-26.24-31.879-26.24
			c-4.98,0-9.707,1.199-14.019,3.494v-13.035C271.104,270.914,328.767,210.824,328.767,137.518z M230.097,314.219
			c1.592,6.41,3.32,28.723-38.842,52.256c-42.162-23.533-40.434-45.846-38.842-52.254c2.137-8.609,9.424-14.857,17.324-14.857
			c5.887,0,11.125,3.418,15.152,9.881c1.369,2.199,3.775,3.535,6.365,3.535c2.59,0,4.998-1.338,6.367-3.535
			c4.025-6.463,9.266-9.881,15.152-9.881C220.673,299.363,227.958,305.611,230.097,314.219z"/>
		<path d="M175.47,15.881c1.971,0,3.9-0.801,5.301-2.201c1.398-1.4,2.199-3.33,2.199-5.299c0-1.971-0.801-3.91-2.199-5.301
			c-1.4-1.4-3.33-2.199-5.301-2.199c-1.98,0-3.91,0.799-5.311,2.199c-1.389,1.391-2.189,3.33-2.189,5.301
			c0,1.969,0.801,3.91,2.189,5.299C171.56,15.08,173.489,15.881,175.47,15.881z"/>
		<path d="M207.04,15.881c1.98,0,3.91-0.801,5.311-2.201c1.389-1.389,2.199-3.33,2.199-5.299c0-1.981-0.811-3.91-2.199-5.301
			c-1.4-1.4-3.33-2.199-5.311-2.199c-1.971,0-3.91,0.799-5.301,2.199c-1.389,1.391-2.199,3.32-2.199,5.301
			c0,1.978,0.811,3.91,2.199,5.299C203.13,15.08,205.069,15.881,207.04,15.881z"/>
		<path d="M191.249,15c1.981,0,3.91-0.801,5.311-2.189c1.391-1.4,2.189-3.33,2.189-5.311c0-1.971-0.799-3.9-2.189-5.301
			C195.159,0.801,193.23,0,191.249,0c-1.969,0-3.898,0.801-5.299,2.199c-1.391,1.4-2.201,3.33-2.201,5.301
			c0,1.981,0.811,3.91,2.201,5.311C187.351,14.199,189.28,15,191.249,15z"/>
	</g>
</g>
<g>
</g>
<g>
</g>
<g>
</g>
<g>
</g>
<g>
</g>
<g>
</g>
<g>
</g>
<g>
</g>
<g>
</g>
<g>
</g>
<g>
</g>
<g>
</g>
<g>
</g>
<g>
</g>
<g>
</g>
</svg>
