<svg height="480pt" viewBox="-65 0 480 480.24595" width="480pt" xmlns="http://www.w3.org/2000/svg"><path d="m195.707031 80.003906h-116.199219c-2.09375-.027344-4.113281.792969-5.59375 2.273438-1.484374 1.476562-2.308593 3.492187-2.285156 5.589844v97.066406c-.023437 2.808594 1.4375 5.421875 3.839844 6.871094l58.070312 34.65625c2.515626 1.503906 5.65625 1.503906 8.171876 0l58.058593-34.65625c2.410157-1.449219 3.878907-4.058594 3.859375-6.871094v-97.066406c.011719-2.101563-.820312-4.117188-2.308594-5.59375-1.492187-1.480469-3.511718-2.296876-5.613281-2.269532zm-8.078125 100.386719-50 29.886719-50-29.886719v-84.386719h100zm0 0"/><path d="m349.730469 198.4375c-1.5-2.175781-3.980469-3.460938-6.621094-3.433594h-99.480469v-187.320312c.078125-2.046875-.699218-4.035156-2.140625-5.488282-1.441406-1.457031-3.421875-2.2499995-5.46875-2.19140575h-181.300781c-2.097656-.07421875-4.136719.69531275-5.65625 2.14062475-1.523438 1.445313-2.398438 3.441407-2.433594 5.539063v41.210937l-45.875 107.136719c-.617187 1.464844-.7890622 3.082031-.484375 4.644531l59.511719 312.984375c.738281 3.742188 4.054688 6.417969 7.871094 6.34375h168.320312c.015625 0 .03125.164063.042969.164063.015625 0 .050781.074219.078125.074219.324219.007812.648438 0 .972656-.03125.089844-.011719.179688-.007813.269532-.023438.335937-.046875.664062-.121094.988281-.210938h.023437c.34375-.105468.675782-.234374 1-.386718.0625-.027344.121094-.054688.183594-.085938.304688-.148437.597656-.316406.882812-.5.015626-.011718.035157-.019531.050782-.03125.28125-.191406.554687-.402344.808594-.628906.074218-.0625.144531-.128906.214843-.195312.25-.230469.480469-.476563.699219-.734376.027344-.03125.050781-.066406.078125-.101562.199219-.253906.386719-.519531.554687-.796875.042969-.070313.082032-.132813.121094-.203125.1875-.316406.347656-.648438.488282-.988281.003906-.015625.011718-.027344.019531-.042969l107.09375-269.4375c.980469-2.449219.675781-5.226562-.8125-7.40625zm-122.101563-182.433594v25h-165v-25zm-211.160156 143.890625 44.148438-102.890625h167.011718v407h-153.355468zm227.160156 270.640625v-219.53125h87.691406zm0 0"/></svg>