<svg viewBox="0 0 24 24"><g fill="none"><path d="M1.5 0h21A1.5 1.5 0 0 1 24 1.5v21a1.5 1.5 0 0 1-1.5 1.5h-21A1.5 1.5 0 0 1 0 22.5v-21A1.5 1.5 0 0 1 1.5 0z" fill="#fd0"></path><path fill="#053F8F" d="M0 17.25h24v4.5H0zm21.546-8.696C14.81 9.827 9.87 11.055 2.297 12.97c-.044.009-.072-.052-.014-.076 4.379-1.648 5.616-2.302 6.159-2.64 1.057-.655 1.563-1.336 1.517-1.81l11.585-.013c.333.004.209.092.002.123zm-7.282 3.468c-.186.249-.539.642-1.037.662l-7.67.221-.015-.04 10.024-2.597.024.051-1.327 1.704zm3.257-4.707c-.199.269-.468.484-.658.718H9.976c-.918-.822-2.703-1.541-3.764-1.919-.199-.079-.083-.079.078-.077C7.307 6.032 16.447 5.993 16.997 6c1.039.014 1.008.666.524 1.314z"></path><path d="M1.712 20.115c.079.626.454.941 1.054.941.596 0 .949-.349.949-.791 0-.386-.165-.585-.799-.799-.578-.195-.664-.255-.664-.424 0-.172.131-.311.427-.311.334 0 .461.18.525.413l.431-.105c-.086-.499-.491-.72-.956-.72-.555 0-.862.349-.862.727 0 .341.206.581.769.758.604.188.694.274.694.488 0 .217-.188.356-.51.356-.401 0-.529-.214-.593-.634l-.465.101zm2.378.03c0 .57.386.911.967.911s.971-.341.971-.911v-1.77h-.439v1.755c0 .315-.176.518-.533.518-.353 0-.525-.199-.525-.525v-1.747h-.442v1.77zM6.629 21h.442v-2.625h-.442V21zm1.759 0h.428l.93-2.625h-.461l-.668 1.98h-.015l-.69-1.98h-.465L8.388 21zm1.732 0h.443v-2.625h-.443V21zm2.055 0h.443v-2.625h-.443V21zm1.099 0h.442v-1.856h.008L14.778 21h.45v-2.625h-.442v1.856h-.008l-1.043-1.856h-.461V21zm4.148-1.027c-.045.375-.199.675-.574.675-.364 0-.675-.281-.675-.975 0-.686.326-.945.675-.945.367 0 .51.293.559.596l.457-.071c-.064-.563-.476-.934-1.02-.934-.574 0-1.129.435-1.129 1.346 0 .975.514 1.391 1.133 1.391.596 0 .979-.412 1.039-.99l-.465-.094zM18.356 21h1.545v-.409h-1.102v-2.216h-.442V21zm1.883-.855c0 .57.386.911.967.911s.971-.341.971-.911v-1.77h-.439v1.755c0 .315-.176.518-.533.518-.352 0-.525-.199-.525-.525v-1.747h-.442v1.77z" fill="#fd0"></path></g></svg>