<svg height="512pt" viewBox="0 0 512 512.00057" width="512pt" xmlns="http://www.w3.org/2000/svg"><path d="m298.398438 443.820312c0 5.578126-4.523438 10.097657-10.097657 10.097657-5.578125 0-10.097656-4.519531-10.097656-10.097657 0-5.574218 4.519531-10.097656 10.097656-10.097656 5.574219 0 10.097657 4.523438 10.097657 10.097656zm0 0"/><path d="m266.082031 437.761719c0 5.578125-4.519531 10.097656-10.097656 10.097656-5.574219 0-10.097656-4.519531-10.097656-10.097656 0-5.574219 4.523437-10.097657 10.097656-10.097657 5.578125 0 10.097656 4.523438 10.097656 10.097657zm0 0"/><path d="m233.769531 443.820312c0 5.578126-4.519531 10.097657-10.097656 10.097657s-10.097656-4.519531-10.097656-10.097657c0-5.574218 4.519531-10.097656 10.097656-10.097656s10.097656 4.523438 10.097656 10.097656zm0 0"/><path d="m407.457031 292.855469c-4.183593 0-7.574219 3.390625-7.574219 7.574219v117.121093c-13.082031 3.292969-43.957031 13.199219-69.660156 37.734375l-6.828125-18.207031c-6.980469-18.617187-25.027343-31.125-44.910156-31.125h-44.996094c-19.882812 0-37.929687 12.507813-44.910156 31.125l-6.828125 18.207031c-25.703125-24.535156-56.578125-34.441406-69.660156-37.734375v-117.121093c0-4.183594-3.390625-7.574219-7.574219-7.574219-4.179687 0-7.570313 3.390625-7.570313 7.574219v123.195312.054688.054687c.027344 2.113281 1.332032 52.195313 53.882813 86.992187 1.910156 1.261719 3.917969 1.257813 6.050781 1.257813h6.585938 190.121094c2.59375 0 5.269531.257813 7.5625-1.257813 52.546874-34.796874 53.851562-84.878906 53.878906-86.992187 0-.019531 0-.03125 0-.046875 0-.023438.003906-.042969.003906-.0625v-123.195312c-.003906-4.183594-3.394531-7.574219-7.574219-7.574219zm-294.019531 140.820312c14.464844 4.320313 41.472656 14.832031 62.453125 37.199219-3.957031 10.304688-11.128906 18.910156-20.457031 24.632812-29.707032-21.238281-39.058594-47.621093-41.996094-61.832031zm63.949219 63.160157c5.523437-6.054688 9.890625-13.160157 12.835937-21.007813l12.535156-33.433594c4.777344-12.734375 17.125-21.292969 30.730469-21.292969h44.996094c13.605469 0 25.953125 8.558594 30.730469 21.292969l12.535156 33.433594c2.945312 7.847656 7.3125 14.949219 12.835938 21.007813zm179.148437-1.328126c-9.328125-5.722656-16.5-14.328124-20.457031-24.632812 20.953125-22.335938 47.917969-32.851562 62.390625-37.179688-3.015625 14.234376-12.460938 40.710938-41.933594 61.8125zm0 0"/><path d="m508.21875 63.65625-107.039062-62.605469c-1.160157-.679687-2.476563-1.035156-3.820313-1.035156h-56.078125c-2.230469-.140625-4.4375.699219-6.003906 2.398437-.21875.230469-22.390625 22.84375-79.292969 22.84375-56.898437 0-79.074219-22.613281-79.25-22.796874-1.457031-1.585938-3.492187-2.4335942-5.574219-2.4335942l.003906-.015625h-56.550781c-1.34375 0-2.664062.3593752-3.824219 1.0390622l-107.039062 62.605469c-2.757812 1.617188-4.207031 4.789062-3.621094 7.929688l14.136719 75.734374c.578125 3.085938 2.996094 5.496094 6.082031 6.058594l76.59375 14.011719v97.695313c0 4.183593 3.390625 7.574218 7.574219 7.574218s7.574219-3.390625 7.574219-7.574218v-103.757813l9.613281-146.167969h41.609375c.066406 14.273438 2.882812 43.867188 22.941406 66.066406 16.09375 17.808594 39.554688 26.835938 69.730469 26.835938s53.636719-9.03125 69.730469-26.835938c20.058594-22.199218 22.871094-51.792968 22.941406-66.066406h41.609375l9.613281 146.160156v103.765626c0 4.183593 3.390625 7.574218 7.574219 7.574218s7.574219-3.390625 7.574219-7.574218v-97.695313l76.59375-14.011719c3.085937-.5625 5.503906-2.972656 6.082031-6.058594l14.136719-75.734374c.585937-3.140626-.863282-6.3125-3.621094-7.929688zm-480.019531 75.761719-12.203125-65.375 90.125-52.714844-8.605469 130.769531zm286.277343-68.347657c-13.097656 14.496094-32.777343 21.84375-58.492187 21.84375-25.664063 0-45.320313-7.324218-58.421875-21.765624-13.691406-15.101563-17.699219-35.175782-18.742188-48.519532 13.523438 7.953125 38.132813 17.777344 77.164063 17.777344 39.070313 0 63.683594-9.839844 77.199219-17.796875-1.019532 13.292969-4.996094 33.292969-18.707032 48.460937zm169.292969 68.347657-69.316406 12.679687-8.601563-130.769531 90.121094 52.714844zm0 0"/></svg>