<svg id="Layer_3" enable-background="new 0 0 64 64" height="512" viewBox="0 0 64 64" width="512" xmlns="http://www.w3.org/2000/svg"><path d="m59 39h-2v-20c0-4.829-3.441-8.869-8-9.798v-5.202c0-1.654-1.346-3-3-3h-8c-1.654 0-3 1.346-3 3v5h-6v-5c0-1.654-1.346-3-3-3h-8c-1.654 0-3 1.346-3 3v5.202c-4.559.929-8 4.97-8 9.798v20h-2c-2.206 0-4 1.794-4 4v12c0 2.206 1.794 4 4 4h4.019c1.827 2.423 4.719 4 7.981 4h30c3.261 0 6.154-1.577 7.981-4h4.019c2.206 0 4-1.794 4-4v-12c0-2.206-1.794-4-4-4zm-46-26.918c1.178-.684 2.542-1.082 4-1.082h30c1.458 0 2.822.398 4 1.082v13.918c0 1.654-1.346 3-3 3h-32c-1.654 0-3-1.346-3-3zm24-8.082c0-.552.448-1 1-1h8c.552 0 1 .448 1 1v5h-10zm-20 0c0-.552.448-1 1-1h8c.552 0 1 .448 1 1v5h-10zm-12 53c-1.103 0-2-.897-2-2v-12c0-1.103.897-2 2-2h2v12c0 1.422.303 2.774.841 4zm42 4h-30c-4.411 0-8-3.589-8-8v-34c0-2.021.759-3.864 2-5.274v12.274c0 2.757 2.243 5 5 5h32c2.757 0 5-2.243 5-5v-12.274c1.241 1.41 2 3.253 2 5.274v34c0 4.411-3.589 8-8 8zm14-6c0 1.103-.897 2-2 2h-2.841c.538-1.226.841-2.578.841-4v-12h2c1.103 0 2 .897 2 2z"/><path d="m48 35h-32c-1.654 0-3 1.346-3 3v18c0 1.654 1.346 3 3 3h32c1.654 0 3-1.346 3-3v-18c0-1.654-1.346-3-3-3zm-32 2h32c.552 0 1 .448 1 1v3h-34v-3c0-.552.448-1 1-1zm27 6h2v1c0 .552-.448 1-1 1s-1-.448-1-1zm1 4c1.654 0 3-1.346 3-3v-1h2v10h-34v-10h26v1c0 1.654 1.346 3 3 3zm4 10h-32c-.552 0-1-.448-1-1v-1h34v1c0 .552-.448 1-1 1z"/></svg>