<svg id="Layer_1" height="512" viewBox="0 0 128 128" width="512" xmlns="http://www.w3.org/2000/svg" data-name="Layer 1"><path d="m122.791 113.4c.038-.042.073-.084.106-.129s.065-.091.094-.14.055-.1.08-.147.046-.1.066-.155a1.724 1.724 0 0 0 .052-.167c.014-.053.025-.107.034-.162a1.726 1.726 0 0 0 .019-.184c0-.03.009-.059.009-.09s-.007-.054-.008-.082 0-.057 0-.086l-9.276-96.448c0-.032-.014-.061-.018-.093a1.742 1.742 0 0 0 -.034-.173 1.708 1.708 0 0 0 -.051-.165c-.019-.053-.041-.1-.065-.155s-.051-.1-.08-.148-.063-.1-.1-.145-.061-.077-.094-.114a1.748 1.748 0 0 0 -.144-.143c-.028-.025-.057-.048-.086-.071a1.754 1.754 0 0 0 -.2-.135l-.067-.036a1.715 1.715 0 0 0 -.247-.105l-.064-.02a1.731 1.731 0 0 0 -.259-.056c-.034 0-.069-.008-.1-.01s-.085-.013-.13-.013h-96.452c-.031 0-.06.008-.091.009a1.721 1.721 0 0 0 -.184.019c-.055.009-.107.02-.16.033a1.732 1.732 0 0 0 -.171.053c-.051.019-.1.04-.148.063a1.723 1.723 0 0 0 -.156.085c-.045.027-.088.057-.13.088a1.744 1.744 0 0 0 -.138.114c-.038.035-.074.071-.109.109a1.727 1.727 0 0 0 -.115.139c-.031.042-.06.085-.087.13a1.713 1.713 0 0 0 -.085.156c-.024.05-.045.1-.064.154s-.037.108-.051.165a1.715 1.715 0 0 0 -.035.174c0 .031-.015.061-.018.093l-9.276 96.445v.086s-.008.054-.008.082.007.059.009.09a1.726 1.726 0 0 0 .019.184c.009.055.02.109.034.162a1.724 1.724 0 0 0 .052.167c.02.053.041.1.066.155s.051.1.08.147.061.094.094.14.069.087.106.129.076.08.118.118.085.074.13.108.09.064.138.093.1.056.15.081a1.8 1.8 0 0 0 .32.117 1.765 1.765 0 0 0 .175.035c.031 0 .06.015.092.018.056 0 .111.008.166.008h48.801a1.731 1.731 0 0 0 .555-.1c.023-.008.046-.012.068-.021a1.74 1.74 0 0 0 .456-.265c.024-.019.047-.037.07-.058a1.746 1.746 0 0 0 .336-.4c.016-.025.028-.051.042-.078a1.726 1.726 0 0 0 .187-.521c0-.007.006-.013.007-.02l6.979-41.689 6.979 41.689c0 .007.006.013.007.02a1.723 1.723 0 0 0 .187.521c.014.026.027.052.042.078a1.744 1.744 0 0 0 .336.4c.023.021.046.039.071.058a1.732 1.732 0 0 0 .455.264c.023.009.046.014.069.021a1.732 1.732 0 0 0 .555.1h48.8c.055 0 .11 0 .166-.008.032 0 .061-.014.092-.018a1.765 1.765 0 0 0 .175-.035 1.8 1.8 0 0 0 .32-.117c.052-.025.1-.052.15-.081s.093-.06.138-.093.089-.07.13-.108.081-.077.119-.116zm-48.6-2.923-8.437-50.4v-30.277h26.124l.095.876a18.5 18.5 0 0 0 18.416 16.524h3.1l6.085 63.272zm-20.374 0h-45.39l6.085-63.277h3.1a18.5 18.5 0 0 0 18.415-16.524l.095-.876h26.128v30.28zm59.335-66.777h-2.763a15 15 0 0 1 -14.936-13.4l-.054-.5h16.416zm-1.674-17.4h-94.956l.844-8.774h93.268zm-78.878 3.5-.054.5a15 15 0 0 1 -14.935 13.4h-2.763l1.337-13.9z"/></svg>